<?xml version="1.0" encoding="UTF-8"?>
<svg width="20px" height="20px" viewBox="0 0 20 20" version="1.1" xmlns="http://www.w3.org/2000/svg" xmlns:xlink="http://www.w3.org/1999/xlink">
    <!-- Generator: Sketch 52.5 (67469) - http://www.bohemiancoding.com/sketch -->
    <title>操作记录</title>
    <desc>Created with Sketch.</desc>
    <g id="操作记录" stroke="none" stroke-width="1" fill="none" fill-rule="evenodd">
        <path d="M8,6 C7.44771525,6 7,6.44771525 7,7 L7,13 C7,13.5522847 7.44771525,14 8,14 L13,14 C13.5522847,14 14,13.5522847 14,13 L14,7 C14,6.44771525 13.5522847,6 13,6 L8,6 Z M8,5 L13,5 C14.1045695,5 15,5.8954305 15,7 L15,13 C15,14.1045695 14.1045695,15 13,15 L8,15 C6.8954305,15 6,14.1045695 6,13 L6,7 C6,5.8954305 6.8954305,5 8,5 Z M8.5,11.5 L10,11.5 C10.2761424,11.5 10.5,11.7238576 10.5,12 C10.5,12.2761424 10.2761424,12.5 10,12.5 L8.5,12.5 C8.22385763,12.5 8,12.2761424 8,12 C8,11.7238576 8.22385763,11.5 8.5,11.5 Z M8.5,7.5 L12.5,7.5 C12.7761424,7.5 13,7.72385763 13,8 C13,8.27614237 12.7761424,8.5 12.5,8.5 L8.5,8.5 C8.22385763,8.5 8,8.27614237 8,8 C8,7.72385763 8.22385763,7.5 8.5,7.5 Z M8.5,9.5 L12.5,9.5 C12.7761424,9.5 13,9.72385763 13,10 C13,10.2761424 12.7761424,10.5 12.5,10.5 L8.5,10.5 C8.22385763,10.5 8,10.2761424 8,10 C8,9.72385763 8.22385763,9.5 8.5,9.5 Z" id="合并形状" fill="#B2AEBC" fill-rule="nonzero"></path>
    </g>
</svg>